<svg width="430" height="280" viewBox="0 0 430 280" xmlns="http://www.w3.org/2000/svg"><rect width="430" height="280" rx="22" fill="#f7f7f7"/><path d="M52 154 C87 75 208 54 359 91 C333 171 250 221 89 212 C53 207 40 183 52 154Z" fill="#151515" stroke="#333" stroke-width="7"/><path d="M83 151 C113 96 207 81 319 104 C295 159 226 189 106 184 C82 183 72 170 83 151Z" fill="#e8edf2"/><circle cx="159" cy="145" r="48" fill="#fff" stroke="#777" stroke-width="8"/><circle cx="159" cy="145" r="27" fill="#d6dce3" stroke="#222" stroke-width="5"/><circle cx="255" cy="138" r="38" fill="#fff" stroke="#999" stroke-width="8"/><circle cx="255" cy="138" r="19" fill="#d6dce3" stroke="#222" stroke-width="5"/><path d="M305 112 L344 111 L331 148 L294 154Z" fill="#f5bd18"/></svg>