<svg width="430" height="280" viewBox="0 0 430 280" xmlns="http://www.w3.org/2000/svg"><rect width="430" height="280" rx="22" fill="#f7f7f7"/><path d="M91 70 H332 C350 70 365 85 365 103 V182 C365 205 346 220 323 214 L99 159 C79 154 67 134 72 114 L78 89 C80 78 88 70 91 70Z" fill="#151515" stroke="#333" stroke-width="7"/><path d="M105 92 H335 V137 H96Z" fill="#b81219"/><path d="M97 143 H337 V192 L102 139Z" fill="#e33137"/><path d="M250 92 H337 V192 L250 173Z" fill="#fff" opacity=".8"/><path d="M105 92 L96 137 L190 137 L190 92Z" fill="#f5bd18"/></svg>