<svg width="900" height="520" viewBox="0 0 900 520" xmlns="http://www.w3.org/2000/svg"><defs><linearGradient id="a" x1="0" x2="1"><stop stop-color="#0b0b0b"/><stop offset="1" stop-color="#2a2a2a"/></linearGradient></defs><rect width="900" height="520" rx="32" fill="url(#a)"/><rect x="45" y="58" width="810" height="360" rx="22" fill="#111"/><g stroke="#f5bd18" stroke-width="5" opacity=".6"><path d="M80 98 H820"/><path d="M80 160 H820"/><path d="M80 222 H820"/><path d="M80 284 H820"/></g><path d="M155 340 C194 260 276 232 390 235 H485 C558 238 630 279 674 342 C690 347 688 375 668 378 H150 C128 376 128 348 155 340Z" fill="#050505" stroke="#555" stroke-width="6"/><circle cx="265" cy="378" r="54" fill="#050505" stroke="#444" stroke-width="10"/><circle cx="265" cy="378" r="22" fill="#f5bd18"/><circle cx="566" cy="378" r="54" fill="#050505" stroke="#444" stroke-width="10"/><circle cx="566" cy="378" r="22" fill="#f5bd18"/><path d="M80 440 H820" stroke="#333" stroke-width="18"/></svg>